<svg viewBox="0 0 800 300" xmlns="http://www.w3.org/2000/svg">
  <!-- Fretboard -->
  <rect x="50" y="30" width="700" height="240" fill="#d4b895" stroke="#333"/>
  
  <!-- Fret lines -->
  <g id="frets" stroke="#666" stroke-width="2">
    <line x1="50" y1="30" x2="50" y2="270" stroke="#333" stroke-width="4"/> <!-- Nut -->
    <line x1="108" y1="30" x2="108" y2="270"/>
    <line x1="166" y1="30" x2="166" y2="270"/>
    <line x1="224" y1="30" x2="224" y2="270"/>
    <line x1="282" y1="30" x2="282" y2="270"/>
    <line x1="340" y1="30" x2="340" y2="270"/>
    <line x1="398" y1="30" x2="398" y2="270"/>
    <line x1="456" y1="30" x2="456" y2="270"/>
    <line x1="514" y1="30" x2="514" y2="270"/>
    <line x1="572" y1="30" x2="572" y2="270"/>
    <line x1="630" y1="30" x2="630" y2="270"/>
    <line x1="688" y1="30" x2="688" y2="270"/>
    <line x1="746" y1="30" x2="746" y2="270"/>
  </g>

  <!-- Strings -->
  <g id="strings" stroke="#333">
    <line x1="50" y1="50" x2="750" y2="50" stroke-width="1"/> <!-- High E -->
    <line x1="50" y1="90" x2="750" y2="90" stroke-width="1.2"/> <!-- B -->
    <line x1="50" y1="130" x2="750" y2="130" stroke-width="1.4"/> <!-- G -->
    <line x1="50" y1="170" x2="750" y2="170" stroke-width="1.6"/> <!-- D -->
    <line x1="50" y1="210" x2="750" y2="210" stroke-width="1.8"/> <!-- A -->
    <line x1="50" y1="250" x2="750" y2="250" stroke-width="2"/> <!-- Low E -->
  </g>

  <!-- Fret markers -->
  <g fill="#666">
    <circle cx="195" cy="150" r="8"/>
    <circle cx="311" cy="150" r="8"/>
    <circle cx="427" cy="150" r="8"/>
    <circle cx="543" cy="150" r="8"/>
    <circle cx="659" cy="150" r="8"/>
    <!-- 12th fret double dot -->
    <circle cx="717" cy="110" r="8"/>
    <circle cx="717" cy="190" r="8"/>
  </g>

  <!-- Notes for all strings -->
  <g font-size="14">
    <!-- High E string -->
    <g transform="translate(0,50)">
      <circle cx="29" cy="0" r="15" fill="white" stroke="#333"/>
      <text x="29" y="5" text-anchor="middle" fill="#333">E</text>
      <circle cx="79" cy="0" r="15" fill="white" stroke="#333"/>
      <text x="79" y="5" text-anchor="middle" fill="#333">F</text>
      <circle cx="137" cy="0" r="15" fill="#333"/>
      <text x="137" y="5" text-anchor="middle" fill="white">F♯</text>
      <circle cx="195" cy="0" r="15" fill="white" stroke="#333"/>
      <text x="195" y="5" text-anchor="middle" fill="#333">G</text>
      <circle cx="253" cy="0" r="15" fill="#333"/>
      <text x="253" y="5" text-anchor="middle" fill="white">G♯</text>
      <circle cx="311" cy="0" r="15" fill="white" stroke="#333"/>
      <text x="311" y="5" text-anchor="middle" fill="#333">A</text>
      <circle cx="369" cy="0" r="15" fill="#333"/>
      <text x="369" y="5" text-anchor="middle" fill="white">A♯</text>
      <circle cx="427" cy="0" r="15" fill="white" stroke="#333"/>
      <text x="427" y="5" text-anchor="middle" fill="#333">B</text>
      <circle cx="485" cy="0" r="15" fill="white" stroke="#333"/>
      <text x="485" y="5" text-anchor="middle" fill="#333">C</text>
      <circle cx="543" cy="0" r="15" fill="#333"/>
      <text x="543" y="5" text-anchor="middle" fill="white">C♯</text>
      <circle cx="601" cy="0" r="15" fill="white" stroke="#333"/>
      <text x="601" y="5" text-anchor="middle" fill="#333">D</text>
      <circle cx="659" cy="0" r="15" fill="#333"/>
      <text x="659" y="5" text-anchor="middle" fill="white">D♯</text>
      <circle cx="717" cy="0" r="15" fill="white" stroke="#333"/>
      <text x="717" y="5" text-anchor="middle" fill="#333">E</text>
    </g>
    
    <!-- B string -->
    <g transform="translate(0,90)">
      <circle cx="29" cy="0" r="15" fill="white" stroke="#333"/>
      <text x="29" y="5" text-anchor="middle" fill="#333">B</text>
      <circle cx="79" cy="0" r="15" fill="white" stroke="#333"/>
      <text x="79" y="5" text-anchor="middle" fill="#333">C</text>
      <circle cx="137" cy="0" r="15" fill="#333"/>
      <text x="137" y="5" text-anchor="middle" fill="white">C♯</text>
      <circle cx="195" cy="0" r="15" fill="white" stroke="#333"/>
      <text x="195" y="5" text-anchor="middle" fill="#333">D</text>
      <circle cx="253" cy="0" r="15" fill="#333"/>
      <text x="253" y="5" text-anchor="middle" fill="white">D♯</text>
      <circle cx="311" cy="0" r="15" fill="white" stroke="#333"/>
      <text x="311" y="5" text-anchor="middle" fill="#333">E</text>
      <circle cx="369" cy="0" r="15" fill="white" stroke="#333"/>
      <text x="369" y="5" text-anchor="middle" fill="#333">F</text>
      <circle cx="427" cy="0" r="15" fill="#333"/>
      <text x="427" y="5" text-anchor="middle" fill="white">F♯</text>
      <circle cx="485" cy="0" r="15" fill="white" stroke="#333"/>
      <text x="485" y="5" text-anchor="middle" fill="#333">G</text>
      <circle cx="543" cy="0" r="15" fill="#333"/>
      <text x="543" y="5" text-anchor="middle" fill="white">G♯</text>
      <circle cx="601" cy="0" r="15" fill="white" stroke="#333"/>
      <text x="601" y="5" text-anchor="middle" fill="#333">A</text>
      <circle cx="659" cy="0" r="15" fill="#333"/>
      <text x="659" y="5" text-anchor="middle" fill="white">A♯</text>
      <circle cx="717" cy="0" r="15" fill="white" stroke="#333"/>
      <text x="717" y="5" text-anchor="middle" fill="#333">B</text>
    </g>

    <!-- G string -->
    <g transform="translate(0,130)">
      <circle cx="29" cy="0" r="15" fill="white" stroke="#333"/>
      <text x="29" y="5" text-anchor="middle" fill="#333">G</text>
      <circle cx="79" cy="0" r="15" fill="#333"/>
      <text x="79" y="5" text-anchor="middle" fill="white">G♯</text>
      <circle cx="137" cy="0" r="15" fill="white" stroke="#333"/>
      <text x="137" y="5" text-anchor="middle" fill="#333">A</text>
      <circle cx="195" cy="0" r="15" fill="#333"/>
      <text x="195" y="5" text-anchor="middle" fill="white">A♯</text>
      <circle cx="253" cy="0" r="15" fill="white" stroke="#333"/>
      <text x="253" y="5" text-anchor="middle" fill="#333">B</text>
      <circle cx="311" cy="0" r="15" fill="white" stroke="#333"/>
      <text x="311" y="5" text-anchor="middle" fill="#333">C</text>
      <circle cx="369" cy="0" r="15" fill="#333"/>
      <text x="369" y="5" text-anchor="middle" fill="white">C♯</text>
      <circle cx="427" cy="0" r="15" fill="white" stroke="#333"/>
      <text x="427" y="5" text-anchor="middle" fill="#333">D</text>
      <circle cx="485" cy="0" r="15" fill="#333"/>
      <text x="485" y="5" text-anchor="middle" fill="white">D♯</text>
      <circle cx="543" cy="0" r="15" fill="white" stroke="#333"/>
      <text x="543" y="5" text-anchor="middle" fill="#333">E</text>
      <circle cx="601" cy="0" r="15" fill="white" stroke="#333"/>
      <text x="601" y="5" text-anchor="middle" fill="#333">F</text>
      <circle cx="659" cy="0" r="15" fill="#333"/>
      <text x="659" y="5" text-anchor="middle" fill="white">F♯</text>
      <circle cx="717" cy="0" r="15" fill="white" stroke="#333"/>
      <text x="717" y="5" text-anchor="middle" fill="#333">G</text>
    </g>

    <!-- D string -->
    <g transform="translate(0,170)">
      <circle cx="29" cy="0" r="15" fill="white" stroke="#333"/>
      <text x="29" y="5" text-anchor="middle" fill="#333">D</text>
      <circle cx="79" cy="0" r="15" fill="#333"/>
      <text x="79" y="5" text-anchor="middle" fill="white">D♯</text>
      <circle cx="137" cy="0" r="15" fill="white" stroke="#333"/>
      <text x="137" y="5" text-anchor="middle" fill="#333">E</text>
      <circle cx="195" cy="0" r="15" fill="white" stroke="#333"/>
      <text x="195" y="5" text-anchor="middle" fill="#333">F</text>
      <circle cx="253" cy="0" r="15" fill="#333"/>
      <text x="253" y="5" text-anchor="middle" fill="white">F♯</text>
      <circle cx="311" cy="0" r="15" fill="white" stroke="#333"/>
      <text x="311" y="5" text-anchor="middle" fill="#333">G</text>
      <circle cx="369" cy="0" r="15" fill="#333"/>
      <text x="369" y="5" text-anchor="middle" fill="white">G♯</text>
      <circle cx="427" cy="0" r="15" fill="white" stroke="#333"/>
      <text x="427" y="5" text-anchor="middle" fill="#333">A</text>
      <circle cx="485" cy="0" r="15" fill="#333"/>
      <text x="485" y="5" text-anchor="middle" fill="white">A♯</text>
      <circle cx="543" cy="0" r="15" fill="white" stroke="#333"/>
      <text x="543" y="5" text-anchor="middle" fill="#333">B</text>
      <circle cx="601" cy="0" r="15" fill="white" stroke="#333"/>
      <text x="601" y="5" text-anchor="middle" fill="#333">C</text>
      <circle cx="659" cy="0" r="15" fill="#333"/>
      <text x="659" y="5" text-anchor="middle" fill="white">C♯</text>
      <circle cx="717" cy="0" r="15" fill="white" stroke="#333"/>
      <text x="717" y="5" text-anchor="middle" fill="#333">D</text>
    </g>
     <!-- A string -->
    <g transform="translate(0,210)">
      <circle cx="29" cy="0" r="15" fill="white" stroke="#333"/>
      <text x="29" y="5" text-anchor="middle" fill="#333">A</text>
      <circle cx="79" cy="0" r="15" fill="#333" stroke="#333"/>
      <text x="79" y="5" text-anchor="middle" fill="white">A♯</text>
      <circle cx="137" cy="0" r="15" fill="white" stroke="#333"/>
      <text x="137" y="5" text-anchor="middle" fill="#333">B</text>
      <circle cx="195" cy="0" r="15" fill="white" stroke="#333"/>
      <text x="195" y="5" text-anchor="middle" fill="#333">C</text>
      <circle cx="253" cy="0" r="15" fill="#333" stroke="#333"/>
      <text x="253" y="5" text-anchor="middle" fill="white">C♯</text>
      <circle cx="311" cy="0" r="15" fill="white" stroke="#333"/>
      <text x="311" y="5" text-anchor="middle" fill="#333">D</text>
      <circle cx="369" cy="0" r="15" fill="#333" stroke="#333"/>
      <text x="369" y="5" text-anchor="middle" fill="white">D♯</text>
      <circle cx="427" cy="0" r="15" fill="white" stroke="#333"/>
      <text x="427" y="5" text-anchor="middle" fill="#333">E</text>
      <circle cx="485" cy="0" r="15" fill="white" stroke="#333"/>
      <text x="485" y="5" text-anchor="middle" fill="#333">F</text>
      <circle cx="543" cy="0" r="15" fill="#333" stroke="#333"/>
      <text x="543" y="5" text-anchor="middle" fill="white">F♯</text>
      <circle cx="601" cy="0" r="15" fill="white" stroke="#333"/>
      <text x="601" y="5" text-anchor="middle" fill="#333">G</text>
      <circle cx="659" cy="0" r="15" fill="#333" stroke="#333"/>
      <text x="659" y="5" text-anchor="middle" fill="white">G♯</text>
      <circle cx="717" cy="0" r="15" fill="white" stroke="#333"/>
      <text x="717" y="5" text-anchor="middle" fill="#333">A</text>
    </g>

    <!-- Low E string -->
    <g transform="translate(0,250)">
      <circle cx="29" cy="0" r="15" fill="white" stroke="#333"/>
      <text x="29" y="5" text-anchor="middle" fill="#333">E</text>
      <circle cx="79" cy="0" r="15" fill="white" stroke="#333"/>
      <text x="79" y="5" text-anchor="middle" fill="#333">F</text>
      <circle cx="137" cy="0" r="15" fill="#333" stroke="#333"/>
      <text x="137" y="5" text-anchor="middle" fill="white">F♯</text>
      <circle cx="195" cy="0" r="15" fill="white" stroke="#333"/>
      <text x="195" y="5" text-anchor="middle" fill="#333">G</text>
      <circle cx="253" cy="0" r="15" fill="#333" stroke="#333"/>
      <text x="253" y="5" text-anchor="middle" fill="white">G♯</text>
      <circle cx="311" cy="0" r="15" fill="white" stroke="#333"/>
      <text x="311" y="5" text-anchor="middle" fill="#333">A</text>
      <circle cx="369" cy="0" r="15" fill="#333" stroke="#333"/>
      <text x="369" y="5" text-anchor="middle" fill="white">A♯</text>
      <circle cx="427" cy="0" r="15" fill="white" stroke="#333"/>
      <text x="427" y="5" text-anchor="middle" fill="#333">B</text>
      <circle cx="485" cy="0" r="15" fill="white" stroke="#333"/>
      <text x="485" y="5" text-anchor="middle" fill="#333">C</text>
      <circle cx="543" cy="0" r="15" fill="#333" stroke="#333"/>
      <text x="543" y="5" text-anchor="middle" fill="white">C♯</text>
      <circle cx="601" cy="0" r="15" fill="white" stroke="#333"/>
      <text x="601" y="5" text-anchor="middle" fill="#333">D</text>
      <circle cx="659" cy="0" r="15" fill="#333" stroke="#333"/>
      <text x="659" y="5" text-anchor="middle" fill="white">D♯</text>
      <circle cx="717" cy="0" r="15" fill="white" stroke="#333"/>
      <text x="717" y="5" text-anchor="middle" fill="#333">E</text>
    </g>
  </g>
</svg>
