<?xml version="1.0" encoding="iso-8859-1"?>
<svg height="800px" width="800px" version="1.1" xmlns="http://www.w3.org/2000/svg" viewBox="0 0 25.922 30.922">
  <!-- Hand silhouette mirrored - moved down by adjusting transform -->
  <g transform="translate(25.922,5) scale(-1,1)">
    <path style="fill:#D8DEE9;" d="M3.308,16.35c1.46-0.876,2.288,0.117,3.883,0.861c1.371,0.64,2.899,0.65,3.033-0.153
      c0.216-1.297,0.169-1.916,0.169-3.679c0-1.401-0.442-4.576-0.791-6.975c-0.42-2.887-0.566-4.577,0.851-4.71
      c1.36-0.128,1.428,0.639,1.945,4.56c0.396,3.006,1.023,5.121,1.336,5.059c0.313-0.062-0.152-2.786-0.266-5.563
      C13.265,0.781,13.531,0,14.781,0c1.077,0,1.312,0.703,1.452,5.75c0.073,2.625,0.359,5.358,0.581,5.358
      c0.334,0,0.599-2.563,0.548-5.341c-0.097-5.194,0.817-4.802,1.367-4.802c0.542,0,1.489,0.153,1.459,5.106
      c-0.019,2.896,0,5.396,0.547,5.396c0.244,0,0.638-2.334,0.638-4.606c0-3.8,0.729-3.8,1.308-3.8c0.577,0,0.881,0.7,0.911,4.499
      c0.025,3.028-0.327,7.291-0.327,9.875c0,6.289-2.041,6.355-2.041,8.487h-8.541c-0.251-0.604-0.832-0.958-2.231-2.387
      c-1.411-1.441-4.606-4.198-7.125-4.74C1.641,18.433,2.407,16.891,3.308,16.35z"/>
  </g>
  
  <!-- Finger Labels - moved down -->
  <g font-family="Arial, sans-serif" font-weight="bold">
    <!-- 1 - index -->
    <text x="15.5" y="6.5" font-size="4" fill="#D8DEE9">1</text>
    
    <!-- 2 - middle -->
    <text x="11" y="5" font-size="4" fill="#D8DEE9">2</text>
    
    <!-- 3 - ring -->
    <text x="7" y="5.5" font-size="4" fill="#D8DEE9">3</text>
    
    <!-- 4 - pinky -->
    <text x="3" y="5.5" font-size="4" fill="#D8DEE9">4</text>
  </g>
</svg>
