<?xml version="1.0" encoding="UTF-8" standalone="no"?>
<svg width="3060px" height="3960px" viewBox="0 0 3060 3960"
 xmlns="http://www.w3.org/2000/svg" xmlns:xlink="http://www.w3.org/1999/xlink" version="1.2" baseProfile="tiny">
<title>switch from hell</title>
<desc>Generated by MuseScore Studio 4.4.4</desc>
<path class="" fill="#ffffff" fill-rule="evenodd" d="M0,0 L3060,0 L3060,3960 L0,3960 L0,0 "/>
<polyline class="StaffLines" fill="none" stroke="#000000" stroke-width="2.73" stroke-linejoin="bevel" points="336.598,386.198 2847.4,386.198"/>
<polyline class="StaffLines" fill="none" stroke="#000000" stroke-width="2.73" stroke-linejoin="bevel" points="336.598,423.398 2847.4,423.398"/>
<polyline class="StaffLines" fill="none" stroke="#000000" stroke-width="2.73" stroke-linejoin="bevel" points="336.598,460.598 2847.4,460.598"/>
<polyline class="StaffLines" fill="none" stroke="#000000" stroke-width="2.73" stroke-linejoin="bevel" points="336.598,497.798 2847.4,497.798"/>
<polyline class="StaffLines" fill="none" stroke="#000000" stroke-width="2.73" stroke-linejoin="bevel" points="336.598,534.998 2847.4,534.998"/>
<polyline class="StaffLines" fill="none" stroke="#000000" stroke-width="2.73" stroke-linejoin="bevel" points="336.598,572.198 2847.4,572.198"/>
<polyline class="BarLine" fill="none" stroke="#000000" stroke-width="4.46" stroke-linejoin="bevel" points="2822.35,384.834 2822.35,573.562"/>
<polyline class="BarLine" fill="none" stroke="#000000" stroke-width="13.64" stroke-linejoin="bevel" points="2840.58,384.834 2840.58,573.562"/>
<polyline class="BarLine" fill="none" stroke="#000000" stroke-width="4.46" stroke-linejoin="bevel" points="2026.55,384.834 2026.55,573.562"/>
<polyline class="BarLine" fill="none" stroke="#000000" stroke-width="4.46" stroke-linejoin="bevel" points="1230.75,384.834 1230.75,573.562"/>
<polyline class="Stem" fill="none" stroke="#000000" stroke-width="2.48" stroke-linejoin="bevel" points="1275.14,596.998 1275.14,671.398"/>
<polyline class="Stem" fill="none" stroke="#000000" stroke-width="2.48" stroke-linejoin="bevel" points="2646.78,596.998 2646.78,671.398"/>
<polyline class="Stem" fill="none" stroke="#000000" stroke-width="2.48" stroke-linejoin="bevel" points="2454.83,596.998 2454.83,671.398"/>
<polyline class="Stem" fill="none" stroke="#000000" stroke-width="2.48" stroke-linejoin="bevel" points="479.338,596.998 479.338,671.398"/>
<polyline class="Stem" fill="none" stroke="#000000" stroke-width="2.48" stroke-linejoin="bevel" points="2262.89,596.998 2262.89,671.398"/>
<polyline class="Stem" fill="none" stroke="#000000" stroke-width="2.48" stroke-linejoin="bevel" points="2070.95,596.998 2070.95,671.398"/>
<polyline class="Stem" fill="none" stroke="#000000" stroke-width="2.48" stroke-linejoin="bevel" points="671.282,596.998 671.282,671.398"/>
<polyline class="Stem" fill="none" stroke="#000000" stroke-width="2.48" stroke-linejoin="bevel" points="863.226,596.998 863.226,671.398"/>
<polyline class="Stem" fill="none" stroke="#000000" stroke-width="2.48" stroke-linejoin="bevel" points="1850.97,596.998 1850.97,671.398"/>
<polyline class="Stem" fill="none" stroke="#000000" stroke-width="2.48" stroke-linejoin="bevel" points="1659.03,596.998 1659.03,671.398"/>
<polyline class="Stem" fill="none" stroke="#000000" stroke-width="2.48" stroke-linejoin="bevel" points="1055.17,596.998 1055.17,671.398"/>
<polyline class="Stem" fill="none" stroke="#000000" stroke-width="2.48" stroke-linejoin="bevel" points="1467.09,596.998 1467.09,671.398"/>
<path class="Note" fill="#ffffff" fill-rule="evenodd" d="M1453.45,404.798 L1480.73,404.798 L1480.73,441.998 L1453.45,441.998 L1453.45,404.798 "/>
<path class="Note" d="M1471.99,429.448 C1471.99,427.858 1471.64,426.448 1470.93,425.218 C1470.23,423.988 1469.37,423.035 1468.37,422.36 C1467.36,421.685 1466.24,421.13 1464.99,420.695 C1463.75,420.26 1462.67,419.975 1461.75,419.84 C1460.84,419.705 1460.04,419.638 1459.35,419.638 C1458.99,419.638 1458.81,419.518 1458.81,419.278 C1458.81,419.188 1458.82,419.113 1458.85,419.053 L1463.76,408.388 L1473.16,408.388 C1473.64,408.388 1474.02,408.313 1474.31,408.163 C1474.59,408.013 1474.9,407.698 1475.23,407.218 L1475.64,407.533 L1473.93,411.538 C1473.81,411.808 1473.46,411.943 1472.89,411.943 L1464.07,411.943 L1462.18,415.768 C1466.56,416.548 1469.82,417.815 1471.95,419.57 C1474.08,421.325 1475.14,423.898 1475.14,427.288 C1475.14,429.058 1474.86,430.633 1474.31,432.013 C1473.75,433.393 1473.05,434.503 1472.19,435.343 C1471.34,436.183 1470.35,436.873 1469.22,437.413 C1468.1,437.953 1467.02,438.32 1465.98,438.515 C1464.95,438.71 1463.91,438.808 1462.86,438.808 C1461.18,438.808 1459.84,438.56 1458.85,438.065 C1457.86,437.57 1457.37,436.888 1457.37,436.018 C1457.37,434.908 1458.01,434.353 1459.3,434.353 C1460.14,434.353 1461.23,434.818 1462.56,435.748 C1463.9,436.678 1464.96,437.143 1465.74,437.143 C1467.51,437.143 1468.99,436.4 1470.19,434.915 C1471.39,433.43 1471.99,431.608 1471.99,429.448"/>
<path class="Note" fill="#ffffff" fill-rule="evenodd" d="M2633.14,553.598 L2660.42,553.598 L2660.42,590.798 L2633.14,590.798 L2633.14,553.598 "/>
<path class="Note" d="M2647.23,587.608 C2644.2,587.608 2641.76,586.4 2639.92,583.985 C2638.07,581.57 2637.15,578.383 2637.15,574.423 C2637.15,573.193 2637.27,571.925 2637.51,570.62 C2637.75,569.315 2638.27,567.83 2639.08,566.165 C2639.89,564.5 2640.94,563.008 2642.23,561.688 C2643.52,560.368 2645.33,559.19 2647.66,558.155 C2649.98,557.12 2652.66,556.468 2655.69,556.198 L2655.78,556.918 C2652.24,557.488 2649.28,558.92 2646.91,561.215 C2644.54,563.51 2643.06,566.353 2642.46,569.743 C2643.87,568.903 2644.93,568.355 2645.65,568.1 C2646.37,567.845 2647.23,567.718 2648.22,567.718 C2650.8,567.718 2652.85,568.565 2654.38,570.26 C2655.91,571.955 2656.68,574.243 2656.68,577.123 C2656.68,580.213 2655.8,582.733 2654.05,584.683 C2652.29,586.633 2650.02,587.608 2647.23,587.608 M2646.51,569.788 C2644.47,569.788 2643.1,570.238 2642.39,571.138 C2641.69,572.038 2641.33,573.373 2641.33,575.143 C2641.33,578.623 2641.9,581.36 2643.04,583.355 C2644.18,585.35 2645.74,586.348 2647.72,586.348 C2649.31,586.348 2650.53,585.68 2651.37,584.345 C2652.21,583.01 2652.63,581.113 2652.63,578.653 C2652.63,575.833 2652.1,573.65 2651.03,572.105 C2649.97,570.56 2648.46,569.788 2646.51,569.788"/>
<path class="Note" fill="#ffffff" fill-rule="evenodd" d="M1261.5,404.798 L1288.78,404.798 L1288.78,441.998 L1261.5,441.998 L1261.5,404.798 "/>
<path class="Note" d="M1275.59,438.808 C1272.56,438.808 1270.12,437.6 1268.28,435.185 C1266.43,432.77 1265.51,429.583 1265.51,425.623 C1265.51,424.393 1265.63,423.125 1265.87,421.82 C1266.11,420.515 1266.64,419.03 1267.45,417.365 C1268.26,415.7 1269.31,414.208 1270.6,412.888 C1271.89,411.568 1273.69,410.39 1276.02,409.355 C1278.34,408.32 1281.02,407.668 1284.05,407.398 L1284.14,408.118 C1280.6,408.688 1277.65,410.12 1275.28,412.415 C1272.91,414.71 1271.42,417.553 1270.82,420.943 C1272.23,420.103 1273.3,419.555 1274.02,419.3 C1274.74,419.045 1275.59,418.918 1276.58,418.918 C1279.16,418.918 1281.22,419.765 1282.75,421.46 C1284.28,423.155 1285.04,425.443 1285.04,428.323 C1285.04,431.413 1284.16,433.933 1282.41,435.883 C1280.65,437.833 1278.38,438.808 1275.59,438.808 M1274.87,420.988 C1272.83,420.988 1271.46,421.438 1270.75,422.338 C1270.05,423.238 1269.7,424.573 1269.7,426.343 C1269.7,429.823 1270.27,432.56 1271.41,434.555 C1272.55,436.55 1274.11,437.548 1276.09,437.548 C1277.68,437.548 1278.89,436.88 1279.73,435.545 C1280.57,434.21 1280.99,432.313 1280.99,429.853 C1280.99,427.033 1280.46,424.85 1279.39,423.305 C1278.33,421.76 1276.82,420.988 1274.87,420.988"/>
<path class="Note" fill="#ffffff" fill-rule="evenodd" d="M1041.53,441.998 L1068.81,441.998 L1068.81,479.198 L1041.53,479.198 L1041.53,441.998 "/>
<path class="Note" d="M1060.07,466.648 C1060.07,465.058 1059.72,463.648 1059.02,462.418 C1058.31,461.188 1057.46,460.235 1056.45,459.56 C1055.45,458.885 1054.32,458.33 1053.08,457.895 C1051.83,457.46 1050.75,457.175 1049.84,457.04 C1048.92,456.905 1048.12,456.838 1047.43,456.838 C1047.07,456.838 1046.89,456.718 1046.89,456.478 C1046.89,456.388 1046.9,456.313 1046.93,456.253 L1051.84,445.588 L1061.24,445.588 C1061.72,445.588 1062.11,445.513 1062.39,445.363 C1062.68,445.213 1062.98,444.898 1063.31,444.418 L1063.72,444.733 L1062.01,448.738 C1061.89,449.008 1061.54,449.143 1060.97,449.143 L1052.15,449.143 L1050.26,452.968 C1054.64,453.748 1057.9,455.015 1060.03,456.77 C1062.16,458.525 1063.22,461.098 1063.22,464.488 C1063.22,466.258 1062.95,467.833 1062.39,469.213 C1061.84,470.593 1061.13,471.703 1060.28,472.543 C1059.42,473.383 1058.43,474.073 1057.31,474.613 C1056.18,475.153 1055.1,475.52 1054.07,475.715 C1053.03,475.91 1051.99,476.008 1050.94,476.008 C1049.26,476.008 1047.92,475.76 1046.93,475.265 C1045.94,474.77 1045.45,474.088 1045.45,473.218 C1045.45,472.108 1046.09,471.553 1047.38,471.553 C1048.22,471.553 1049.31,472.018 1050.65,472.948 C1051.98,473.878 1053.04,474.343 1053.82,474.343 C1055.59,474.343 1057.07,473.6 1058.27,472.115 C1059.47,470.63 1060.07,468.808 1060.07,466.648"/>
<path class="Note" fill="#ffffff" fill-rule="evenodd" d="M1453.45,516.398 L1480.73,516.398 L1480.73,553.598 L1453.45,553.598 L1453.45,516.398 "/>
<path class="Note" d="M1467.54,550.408 C1464.51,550.408 1462.07,549.2 1460.22,546.785 C1458.38,544.37 1457.46,541.183 1457.46,537.223 C1457.46,535.993 1457.58,534.725 1457.82,533.42 C1458.06,532.115 1458.58,530.63 1459.39,528.965 C1460.2,527.3 1461.25,525.808 1462.54,524.488 C1463.83,523.168 1465.64,521.99 1467.96,520.955 C1470.29,519.92 1472.97,519.268 1476,518.998 L1476.09,519.718 C1472.55,520.288 1469.59,521.72 1467.22,524.015 C1464.85,526.31 1463.37,529.153 1462.77,532.543 C1464.18,531.703 1465.24,531.155 1465.96,530.9 C1466.68,530.645 1467.54,530.518 1468.53,530.518 C1471.11,530.518 1473.16,531.365 1474.69,533.06 C1476.22,534.755 1476.99,537.043 1476.99,539.923 C1476.99,543.013 1476.11,545.533 1474.35,547.483 C1472.6,549.433 1470.33,550.408 1467.54,550.408 M1466.82,532.588 C1464.78,532.588 1463.4,533.038 1462.7,533.938 C1461.99,534.838 1461.64,536.173 1461.64,537.943 C1461.64,541.423 1462.21,544.16 1463.35,546.155 C1464.49,548.15 1466.05,549.148 1468.03,549.148 C1469.62,549.148 1470.84,548.48 1471.68,547.145 C1472.52,545.81 1472.94,543.913 1472.94,541.453 C1472.94,538.633 1472.4,536.45 1471.34,534.905 C1470.27,533.36 1468.77,532.588 1466.82,532.588"/>
<path class="Note" fill="#ffffff" fill-rule="evenodd" d="M1041.53,479.198 L1068.81,479.198 L1068.81,516.398 L1041.53,516.398 L1041.53,479.198 "/>
<path class="Note" d="M1055.62,513.208 C1052.59,513.208 1050.15,512 1048.31,509.585 C1046.46,507.17 1045.54,503.983 1045.54,500.023 C1045.54,498.793 1045.66,497.525 1045.9,496.22 C1046.14,494.915 1046.66,493.43 1047.47,491.765 C1048.28,490.1 1049.33,488.608 1050.62,487.288 C1051.91,485.968 1053.72,484.79 1056.05,483.755 C1058.37,482.72 1061.05,482.068 1064.08,481.798 L1064.17,482.518 C1060.63,483.088 1057.67,484.52 1055.3,486.815 C1052.93,489.11 1051.45,491.953 1050.85,495.343 C1052.26,494.503 1053.32,493.955 1054.04,493.7 C1054.76,493.445 1055.62,493.318 1056.61,493.318 C1059.19,493.318 1061.24,494.165 1062.77,495.86 C1064.3,497.555 1065.07,499.843 1065.07,502.723 C1065.07,505.813 1064.19,508.333 1062.44,510.283 C1060.68,512.233 1058.41,513.208 1055.62,513.208 M1054.9,495.388 C1052.86,495.388 1051.49,495.838 1050.78,496.738 C1050.08,497.638 1049.72,498.973 1049.72,500.743 C1049.72,504.223 1050.29,506.96 1051.43,508.955 C1052.57,510.95 1054.13,511.948 1056.11,511.948 C1057.7,511.948 1058.92,511.28 1059.76,509.945 C1060.6,508.61 1061.02,506.713 1061.02,504.253 C1061.02,501.433 1060.49,499.25 1059.42,497.705 C1058.36,496.16 1056.85,495.388 1054.9,495.388"/>
<path class="Note" fill="#ffffff" fill-rule="evenodd" d="M849.586,441.998 L876.866,441.998 L876.866,479.198 L849.586,479.198 L849.586,441.998 "/>
<path class="Note" d="M863.676,476.008 C860.646,476.008 858.208,474.8 856.363,472.385 C854.518,469.97 853.596,466.783 853.596,462.823 C853.596,461.593 853.716,460.325 853.956,459.02 C854.196,457.715 854.721,456.23 855.531,454.565 C856.341,452.9 857.391,451.408 858.681,450.088 C859.971,448.768 861.778,447.59 864.103,446.555 C866.428,445.52 869.106,444.868 872.136,444.598 L872.226,445.318 C868.686,445.888 865.731,447.32 863.361,449.615 C860.991,451.91 859.506,454.753 858.906,458.143 C860.316,457.303 861.381,456.755 862.101,456.5 C862.821,456.245 863.676,456.118 864.666,456.118 C867.246,456.118 869.301,456.965 870.831,458.66 C872.361,460.355 873.126,462.643 873.126,465.523 C873.126,468.613 872.248,471.133 870.493,473.083 C868.738,475.033 866.466,476.008 863.676,476.008 M862.956,458.188 C860.916,458.188 859.543,458.638 858.838,459.538 C858.133,460.438 857.781,461.773 857.781,463.543 C857.781,467.023 858.351,469.76 859.491,471.755 C860.631,473.75 862.191,474.748 864.171,474.748 C865.761,474.748 866.976,474.08 867.816,472.745 C868.656,471.41 869.076,469.513 869.076,467.053 C869.076,464.233 868.543,462.05 867.478,460.505 C866.413,458.96 864.906,458.188 862.956,458.188"/>
<path class="Note" fill="#ffffff" fill-rule="evenodd" d="M1645.39,516.398 L1672.67,516.398 L1672.67,553.598 L1645.39,553.598 L1645.39,516.398 "/>
<path class="Note" d="M1663.93,541.048 C1663.93,539.458 1663.58,538.048 1662.88,536.818 C1662.17,535.588 1661.32,534.635 1660.31,533.96 C1659.31,533.285 1658.18,532.73 1656.94,532.295 C1655.69,531.86 1654.61,531.575 1653.7,531.44 C1652.78,531.305 1651.98,531.238 1651.29,531.238 C1650.93,531.238 1650.75,531.118 1650.75,530.878 C1650.75,530.788 1650.76,530.713 1650.79,530.653 L1655.7,519.988 L1665.1,519.988 C1665.58,519.988 1665.97,519.913 1666.25,519.763 C1666.54,519.613 1666.84,519.298 1667.17,518.818 L1667.58,519.133 L1665.87,523.138 C1665.75,523.408 1665.4,523.543 1664.83,523.543 L1656.01,523.543 L1654.12,527.368 C1658.5,528.148 1661.76,529.415 1663.89,531.17 C1666.02,532.925 1667.08,535.498 1667.08,538.888 C1667.08,540.658 1666.81,542.233 1666.25,543.613 C1665.7,544.993 1664.99,546.103 1664.14,546.943 C1663.28,547.783 1662.29,548.473 1661.17,549.013 C1660.04,549.553 1658.96,549.92 1657.93,550.115 C1656.89,550.31 1655.85,550.408 1654.8,550.408 C1653.12,550.408 1651.78,550.16 1650.79,549.665 C1649.8,549.17 1649.31,548.488 1649.31,547.618 C1649.31,546.508 1649.95,545.953 1651.24,545.953 C1652.08,545.953 1653.17,546.418 1654.51,547.348 C1655.84,548.278 1656.9,548.743 1657.68,548.743 C1659.45,548.743 1660.93,548 1662.13,546.515 C1663.33,545.03 1663.93,543.208 1663.93,541.048"/>
<path class="Note" fill="#ffffff" fill-rule="evenodd" d="M1645.39,404.798 L1672.67,404.798 L1672.67,441.998 L1645.39,441.998 L1645.39,404.798 "/>
<path class="Note" d="M1659.48,438.808 C1656.45,438.808 1654.01,437.6 1652.17,435.185 C1650.32,432.77 1649.4,429.583 1649.4,425.623 C1649.4,424.393 1649.52,423.125 1649.76,421.82 C1650,420.515 1650.52,419.03 1651.33,417.365 C1652.14,415.7 1653.19,414.208 1654.48,412.888 C1655.77,411.568 1657.58,410.39 1659.91,409.355 C1662.23,408.32 1664.91,407.668 1667.94,407.398 L1668.03,408.118 C1664.49,408.688 1661.53,410.12 1659.16,412.415 C1656.79,414.71 1655.31,417.553 1654.71,420.943 C1656.12,420.103 1657.18,419.555 1657.9,419.3 C1658.62,419.045 1659.48,418.918 1660.47,418.918 C1663.05,418.918 1665.1,419.765 1666.63,421.46 C1668.16,423.155 1668.93,425.443 1668.93,428.323 C1668.93,431.413 1668.05,433.933 1666.3,435.883 C1664.54,437.833 1662.27,438.808 1659.48,438.808 M1658.76,420.988 C1656.72,420.988 1655.35,421.438 1654.64,422.338 C1653.94,423.238 1653.58,424.573 1653.58,426.343 C1653.58,429.823 1654.15,432.56 1655.29,434.555 C1656.43,436.55 1657.99,437.548 1659.97,437.548 C1661.56,437.548 1662.78,436.88 1663.62,435.545 C1664.46,434.21 1664.88,432.313 1664.88,429.853 C1664.88,427.033 1664.35,424.85 1663.28,423.305 C1662.22,421.76 1660.71,420.988 1658.76,420.988"/>
<path class="Note" fill="#ffffff" fill-rule="evenodd" d="M849.586,479.198 L876.866,479.198 L876.866,516.398 L849.586,516.398 L849.586,479.198 "/>
<path class="Note" d="M868.131,503.848 C868.131,502.258 867.778,500.848 867.073,499.618 C866.368,498.388 865.513,497.435 864.508,496.76 C863.503,496.085 862.378,495.53 861.133,495.095 C859.888,494.66 858.808,494.375 857.893,494.24 C856.978,494.105 856.176,494.038 855.486,494.038 C855.126,494.038 854.946,493.918 854.946,493.678 C854.946,493.588 854.961,493.513 854.991,493.453 L859.896,482.788 L869.301,482.788 C869.781,482.788 870.163,482.713 870.448,482.563 C870.733,482.413 871.041,482.098 871.371,481.618 L871.776,481.933 L870.066,485.938 C869.946,486.208 869.601,486.343 869.031,486.343 L860.211,486.343 L858.321,490.168 C862.701,490.948 865.956,492.215 868.086,493.97 C870.216,495.725 871.281,498.298 871.281,501.688 C871.281,503.458 871.003,505.033 870.448,506.413 C869.893,507.793 869.188,508.903 868.333,509.743 C867.478,510.583 866.488,511.273 865.363,511.813 C864.238,512.353 863.158,512.72 862.123,512.915 C861.088,513.11 860.046,513.208 858.996,513.208 C857.316,513.208 855.981,512.96 854.991,512.465 C854.001,511.97 853.506,511.288 853.506,510.418 C853.506,509.308 854.151,508.753 855.441,508.753 C856.281,508.753 857.368,509.218 858.703,510.148 C860.038,511.078 861.096,511.543 861.876,511.543 C863.646,511.543 865.131,510.8 866.331,509.315 C867.531,507.83 868.131,506.008 868.131,503.848"/>
<path class="Note" fill="#ffffff" fill-rule="evenodd" d="M1837.33,516.398 L1864.61,516.398 L1864.61,553.598 L1837.33,553.598 L1837.33,516.398 "/>
<path class="Note" d="M1851.42,550.408 C1848.39,550.408 1845.96,549.2 1844.11,546.785 C1842.27,544.37 1841.34,541.183 1841.34,537.223 C1841.34,535.993 1841.46,534.725 1841.7,533.42 C1841.94,532.115 1842.47,530.63 1843.28,528.965 C1844.09,527.3 1845.14,525.808 1846.43,524.488 C1847.72,523.168 1849.53,521.99 1851.85,520.955 C1854.18,519.92 1856.85,519.268 1859.88,518.998 L1859.97,519.718 C1856.43,520.288 1853.48,521.72 1851.11,524.015 C1848.74,526.31 1847.25,529.153 1846.65,532.543 C1848.06,531.703 1849.13,531.155 1849.85,530.9 C1850.57,530.645 1851.42,530.518 1852.41,530.518 C1854.99,530.518 1857.05,531.365 1858.58,533.06 C1860.11,534.755 1860.87,537.043 1860.87,539.923 C1860.87,543.013 1860,545.533 1858.24,547.483 C1856.49,549.433 1854.21,550.408 1851.42,550.408 M1850.7,532.588 C1848.66,532.588 1847.29,533.038 1846.59,533.938 C1845.88,534.838 1845.53,536.173 1845.53,537.943 C1845.53,541.423 1846.1,544.16 1847.24,546.155 C1848.38,548.15 1849.94,549.148 1851.92,549.148 C1853.51,549.148 1854.72,548.48 1855.56,547.145 C1856.4,545.81 1856.82,543.913 1856.82,541.453 C1856.82,538.633 1856.29,536.45 1855.23,534.905 C1854.16,533.36 1852.65,532.588 1850.7,532.588"/>
<path class="Note" fill="#ffffff" fill-rule="evenodd" d="M1837.33,404.798 L1864.61,404.798 L1864.61,441.998 L1837.33,441.998 L1837.33,404.798 "/>
<path class="Note" d="M1855.88,429.448 C1855.88,427.858 1855.53,426.448 1854.82,425.218 C1854.12,423.988 1853.26,423.035 1852.26,422.36 C1851.25,421.685 1850.13,421.13 1848.88,420.695 C1847.64,420.26 1846.56,419.975 1845.64,419.84 C1844.73,419.705 1843.92,419.638 1843.23,419.638 C1842.87,419.638 1842.69,419.518 1842.69,419.278 C1842.69,419.188 1842.71,419.113 1842.74,419.053 L1847.64,408.388 L1857.05,408.388 C1857.53,408.388 1857.91,408.313 1858.2,408.163 C1858.48,408.013 1858.79,407.698 1859.12,407.218 L1859.52,407.533 L1857.81,411.538 C1857.69,411.808 1857.35,411.943 1856.78,411.943 L1847.96,411.943 L1846.07,415.768 C1850.45,416.548 1853.7,417.815 1855.83,419.57 C1857.96,421.325 1859.03,423.898 1859.03,427.288 C1859.03,429.058 1858.75,430.633 1858.2,432.013 C1857.64,433.393 1856.94,434.503 1856.08,435.343 C1855.23,436.183 1854.24,436.873 1853.11,437.413 C1851.99,437.953 1850.91,438.32 1849.87,438.515 C1848.84,438.71 1847.79,438.808 1846.74,438.808 C1845.06,438.808 1843.73,438.56 1842.74,438.065 C1841.75,437.57 1841.25,436.888 1841.25,436.018 C1841.25,434.908 1841.9,434.353 1843.19,434.353 C1844.03,434.353 1845.12,434.818 1846.45,435.748 C1847.79,436.678 1848.84,437.143 1849.62,437.143 C1851.39,437.143 1852.88,436.4 1854.08,434.915 C1855.28,433.43 1855.88,431.608 1855.88,429.448"/>
<path class="Note" fill="#ffffff" fill-rule="evenodd" d="M657.642,441.998 L684.922,441.998 L684.922,479.198 L657.642,479.198 L657.642,441.998 "/>
<path class="Note" d="M676.187,466.648 C676.187,465.058 675.834,463.648 675.129,462.418 C674.424,461.188 673.569,460.235 672.564,459.56 C671.559,458.885 670.434,458.33 669.189,457.895 C667.944,457.46 666.864,457.175 665.949,457.04 C665.034,456.905 664.232,456.838 663.542,456.838 C663.182,456.838 663.002,456.718 663.002,456.478 C663.002,456.388 663.017,456.313 663.047,456.253 L667.952,445.588 L677.357,445.588 C677.837,445.588 678.219,445.513 678.504,445.363 C678.789,445.213 679.097,444.898 679.427,444.418 L679.832,444.733 L678.122,448.738 C678.002,449.008 677.657,449.143 677.087,449.143 L668.267,449.143 L666.377,452.968 C670.757,453.748 674.012,455.015 676.142,456.77 C678.272,458.525 679.337,461.098 679.337,464.488 C679.337,466.258 679.059,467.833 678.504,469.213 C677.949,470.593 677.244,471.703 676.389,472.543 C675.534,473.383 674.544,474.073 673.419,474.613 C672.294,475.153 671.214,475.52 670.179,475.715 C669.144,475.91 668.102,476.008 667.052,476.008 C665.372,476.008 664.037,475.76 663.047,475.265 C662.057,474.77 661.562,474.088 661.562,473.218 C661.562,472.108 662.207,471.553 663.497,471.553 C664.337,471.553 665.424,472.018 666.759,472.948 C668.094,473.878 669.152,474.343 669.932,474.343 C671.702,474.343 673.187,473.6 674.387,472.115 C675.587,470.63 676.187,468.808 676.187,466.648"/>
<path class="Note" fill="#ffffff" fill-rule="evenodd" d="M657.642,479.198 L684.922,479.198 L684.922,516.398 L657.642,516.398 L657.642,479.198 "/>
<path class="Note" d="M671.732,513.208 C668.702,513.208 666.264,512 664.419,509.585 C662.574,507.17 661.652,503.983 661.652,500.023 C661.652,498.793 661.772,497.525 662.012,496.22 C662.252,494.915 662.777,493.43 663.587,491.765 C664.397,490.1 665.447,488.608 666.737,487.288 C668.027,485.968 669.834,484.79 672.159,483.755 C674.484,482.72 677.162,482.068 680.192,481.798 L680.282,482.518 C676.742,483.088 673.787,484.52 671.417,486.815 C669.047,489.11 667.562,491.953 666.962,495.343 C668.372,494.503 669.437,493.955 670.157,493.7 C670.877,493.445 671.732,493.318 672.722,493.318 C675.302,493.318 677.357,494.165 678.887,495.86 C680.417,497.555 681.182,499.843 681.182,502.723 C681.182,505.813 680.304,508.333 678.549,510.283 C676.794,512.233 674.522,513.208 671.732,513.208 M671.012,495.388 C668.972,495.388 667.599,495.838 666.894,496.738 C666.189,497.638 665.837,498.973 665.837,500.743 C665.837,504.223 666.407,506.96 667.547,508.955 C668.687,510.95 670.247,511.948 672.227,511.948 C673.817,511.948 675.032,511.28 675.872,509.945 C676.712,508.61 677.132,506.713 677.132,504.253 C677.132,501.433 676.599,499.25 675.534,497.705 C674.469,496.16 672.962,495.388 671.012,495.388"/>
<path class="Note" fill="#ffffff" fill-rule="evenodd" d="M465.698,441.998 L492.978,441.998 L492.978,479.198 L465.698,479.198 L465.698,441.998 "/>
<path class="Note" d="M479.788,476.008 C476.758,476.008 474.32,474.8 472.475,472.385 C470.63,469.97 469.708,466.783 469.708,462.823 C469.708,461.593 469.828,460.325 470.068,459.02 C470.308,457.715 470.833,456.23 471.643,454.565 C472.453,452.9 473.503,451.408 474.793,450.088 C476.083,448.768 477.89,447.59 480.215,446.555 C482.54,445.52 485.218,444.868 488.248,444.598 L488.338,445.318 C484.798,445.888 481.843,447.32 479.473,449.615 C477.103,451.91 475.618,454.753 475.018,458.143 C476.428,457.303 477.493,456.755 478.213,456.5 C478.933,456.245 479.788,456.118 480.778,456.118 C483.358,456.118 485.413,456.965 486.943,458.66 C488.473,460.355 489.238,462.643 489.238,465.523 C489.238,468.613 488.36,471.133 486.605,473.083 C484.85,475.033 482.578,476.008 479.788,476.008 M479.068,458.188 C477.028,458.188 475.655,458.638 474.95,459.538 C474.245,460.438 473.893,461.773 473.893,463.543 C473.893,467.023 474.463,469.76 475.603,471.755 C476.743,473.75 478.303,474.748 480.283,474.748 C481.873,474.748 483.088,474.08 483.928,472.745 C484.768,471.41 485.188,469.513 485.188,467.053 C485.188,464.233 484.655,462.05 483.59,460.505 C482.525,458.96 481.018,458.188 479.068,458.188"/>
<path class="Note" fill="#ffffff" fill-rule="evenodd" d="M2057.31,553.598 L2084.59,553.598 L2084.59,590.798 L2057.31,590.798 L2057.31,553.598 "/>
<path class="Note" d="M2075.85,578.248 C2075.85,576.658 2075.5,575.248 2074.79,574.018 C2074.09,572.788 2073.23,571.835 2072.23,571.16 C2071.22,570.485 2070.1,569.93 2068.85,569.495 C2067.61,569.06 2066.53,568.775 2065.61,568.64 C2064.7,568.505 2063.9,568.438 2063.21,568.438 C2062.85,568.438 2062.67,568.318 2062.67,568.078 C2062.67,567.988 2062.68,567.913 2062.71,567.853 L2067.62,557.188 L2077.02,557.188 C2077.5,557.188 2077.88,557.113 2078.17,556.963 C2078.45,556.813 2078.76,556.498 2079.09,556.018 L2079.5,556.333 L2077.79,560.338 C2077.67,560.608 2077.32,560.743 2076.75,560.743 L2067.93,560.743 L2066.04,564.568 C2070.42,565.348 2073.68,566.615 2075.81,568.37 C2077.94,570.125 2079,572.698 2079,576.088 C2079,577.858 2078.72,579.433 2078.17,580.813 C2077.61,582.193 2076.91,583.303 2076.05,584.143 C2075.2,584.983 2074.21,585.673 2073.08,586.213 C2071.96,586.753 2070.88,587.12 2069.84,587.315 C2068.81,587.51 2067.77,587.608 2066.72,587.608 C2065.04,587.608 2063.7,587.36 2062.71,586.865 C2061.72,586.37 2061.23,585.688 2061.23,584.818 C2061.23,583.708 2061.87,583.153 2063.16,583.153 C2064,583.153 2065.09,583.618 2066.42,584.548 C2067.76,585.478 2068.82,585.943 2069.6,585.943 C2071.37,585.943 2072.85,585.2 2074.05,583.715 C2075.25,582.23 2075.85,580.408 2075.85,578.248"/>
<path class="Note" fill="#ffffff" fill-rule="evenodd" d="M2057.31,367.598 L2084.59,367.598 L2084.59,404.798 L2057.31,404.798 L2057.31,367.598 "/>
<path class="Note" d="M2071.4,401.608 C2068.37,401.608 2065.93,400.4 2064.08,397.985 C2062.24,395.57 2061.32,392.383 2061.32,388.423 C2061.32,387.193 2061.44,385.925 2061.68,384.62 C2061.92,383.315 2062.44,381.83 2063.25,380.165 C2064.06,378.5 2065.11,377.008 2066.4,375.688 C2067.69,374.368 2069.5,373.19 2071.82,372.155 C2074.15,371.12 2076.83,370.468 2079.86,370.198 L2079.95,370.918 C2076.41,371.488 2073.45,372.92 2071.08,375.215 C2068.71,377.51 2067.23,380.353 2066.63,383.743 C2068.04,382.903 2069.1,382.355 2069.82,382.1 C2070.54,381.845 2071.4,381.718 2072.39,381.718 C2074.97,381.718 2077.02,382.565 2078.55,384.26 C2080.08,385.955 2080.85,388.243 2080.85,391.123 C2080.85,394.213 2079.97,396.733 2078.21,398.683 C2076.46,400.633 2074.19,401.608 2071.4,401.608 M2070.68,383.788 C2068.64,383.788 2067.26,384.238 2066.56,385.138 C2065.85,386.038 2065.5,387.373 2065.5,389.143 C2065.5,392.623 2066.07,395.36 2067.21,397.355 C2068.35,399.35 2069.91,400.348 2071.89,400.348 C2073.48,400.348 2074.7,399.68 2075.54,398.345 C2076.38,397.01 2076.8,395.113 2076.8,392.653 C2076.8,389.833 2076.26,387.65 2075.2,386.105 C2074.13,384.56 2072.63,383.788 2070.68,383.788"/>
<path class="Note" fill="#ffffff" fill-rule="evenodd" d="M465.698,479.198 L492.978,479.198 L492.978,516.398 L465.698,516.398 L465.698,479.198 "/>
<path class="Note" d="M484.243,503.848 C484.243,502.258 483.89,500.848 483.185,499.618 C482.48,498.388 481.625,497.435 480.62,496.76 C479.615,496.085 478.49,495.53 477.245,495.095 C476,494.66 474.92,494.375 474.005,494.24 C473.09,494.105 472.288,494.038 471.598,494.038 C471.238,494.038 471.058,493.918 471.058,493.678 C471.058,493.588 471.073,493.513 471.103,493.453 L476.008,482.788 L485.413,482.788 C485.893,482.788 486.275,482.713 486.56,482.563 C486.845,482.413 487.153,482.098 487.483,481.618 L487.888,481.933 L486.178,485.938 C486.058,486.208 485.713,486.343 485.143,486.343 L476.323,486.343 L474.433,490.168 C478.813,490.948 482.068,492.215 484.198,493.97 C486.328,495.725 487.393,498.298 487.393,501.688 C487.393,503.458 487.115,505.033 486.56,506.413 C486.005,507.793 485.3,508.903 484.445,509.743 C483.59,510.583 482.6,511.273 481.475,511.813 C480.35,512.353 479.27,512.72 478.235,512.915 C477.2,513.11 476.158,513.208 475.108,513.208 C473.428,513.208 472.093,512.96 471.103,512.465 C470.113,511.97 469.618,511.288 469.618,510.418 C469.618,509.308 470.263,508.753 471.553,508.753 C472.393,508.753 473.48,509.218 474.815,510.148 C476.15,511.078 477.208,511.543 477.988,511.543 C479.758,511.543 481.243,510.8 482.443,509.315 C483.643,507.83 484.243,506.008 484.243,503.848"/>
<path class="Note" fill="#ffffff" fill-rule="evenodd" d="M2249.25,553.598 L2276.53,553.598 L2276.53,590.798 L2249.25,590.798 L2249.25,553.598 "/>
<path class="Note" d="M2263.34,587.608 C2260.31,587.608 2257.87,586.4 2256.03,583.985 C2254.18,581.57 2253.26,578.383 2253.26,574.423 C2253.26,573.193 2253.38,571.925 2253.62,570.62 C2253.86,569.315 2254.38,567.83 2255.19,566.165 C2256,564.5 2257.05,563.008 2258.34,561.688 C2259.63,560.368 2261.44,559.19 2263.77,558.155 C2266.09,557.12 2268.77,556.468 2271.8,556.198 L2271.89,556.918 C2268.35,557.488 2265.39,558.92 2263.02,561.215 C2260.65,563.51 2259.17,566.353 2258.57,569.743 C2259.98,568.903 2261.04,568.355 2261.76,568.1 C2262.48,567.845 2263.34,567.718 2264.33,567.718 C2266.91,567.718 2268.96,568.565 2270.49,570.26 C2272.02,571.955 2272.79,574.243 2272.79,577.123 C2272.79,580.213 2271.91,582.733 2270.16,584.683 C2268.4,586.633 2266.13,587.608 2263.34,587.608 M2262.62,569.788 C2260.58,569.788 2259.21,570.238 2258.5,571.138 C2257.8,572.038 2257.44,573.373 2257.44,575.143 C2257.44,578.623 2258.01,581.36 2259.15,583.355 C2260.29,585.35 2261.85,586.348 2263.83,586.348 C2265.42,586.348 2266.64,585.68 2267.48,584.345 C2268.32,583.01 2268.74,581.113 2268.74,578.653 C2268.74,575.833 2268.21,573.65 2267.14,572.105 C2266.08,570.56 2264.57,569.788 2262.62,569.788"/>
<path class="Note" fill="#ffffff" fill-rule="evenodd" d="M2249.25,367.598 L2276.53,367.598 L2276.53,404.798 L2249.25,404.798 L2249.25,367.598 "/>
<path class="Note" d="M2267.79,392.248 C2267.79,390.658 2267.44,389.248 2266.74,388.018 C2266.03,386.788 2265.18,385.835 2264.17,385.16 C2263.17,384.485 2262.04,383.93 2260.8,383.495 C2259.55,383.06 2258.47,382.775 2257.56,382.64 C2256.64,382.505 2255.84,382.438 2255.15,382.438 C2254.79,382.438 2254.61,382.318 2254.61,382.078 C2254.61,381.988 2254.62,381.913 2254.65,381.853 L2259.56,371.188 L2268.96,371.188 C2269.44,371.188 2269.83,371.113 2270.11,370.963 C2270.4,370.813 2270.7,370.498 2271.03,370.018 L2271.44,370.333 L2269.73,374.338 C2269.61,374.608 2269.26,374.743 2268.69,374.743 L2259.87,374.743 L2257.98,378.568 C2262.36,379.348 2265.62,380.615 2267.75,382.37 C2269.88,384.125 2270.94,386.698 2270.94,390.088 C2270.94,391.858 2270.67,393.433 2270.11,394.813 C2269.56,396.193 2268.85,397.303 2268,398.143 C2267.14,398.983 2266.15,399.673 2265.03,400.213 C2263.9,400.753 2262.82,401.12 2261.79,401.315 C2260.75,401.51 2259.71,401.608 2258.66,401.608 C2256.98,401.608 2255.64,401.36 2254.65,400.865 C2253.66,400.37 2253.17,399.688 2253.17,398.818 C2253.17,397.708 2253.81,397.153 2255.1,397.153 C2255.94,397.153 2257.03,397.618 2258.37,398.548 C2259.7,399.478 2260.76,399.943 2261.54,399.943 C2263.31,399.943 2264.79,399.2 2265.99,397.715 C2267.19,396.23 2267.79,394.408 2267.79,392.248"/>
<path class="Note" fill="#ffffff" fill-rule="evenodd" d="M2633.14,367.598 L2660.42,367.598 L2660.42,404.798 L2633.14,404.798 L2633.14,367.598 "/>
<path class="Note" d="M2651.68,392.248 C2651.68,390.658 2651.33,389.248 2650.63,388.018 C2649.92,386.788 2649.07,385.835 2648.06,385.16 C2647.06,384.485 2645.93,383.93 2644.69,383.495 C2643.44,383.06 2642.36,382.775 2641.45,382.64 C2640.53,382.505 2639.73,382.438 2639.04,382.438 C2638.68,382.438 2638.5,382.318 2638.5,382.078 C2638.5,381.988 2638.51,381.913 2638.54,381.853 L2643.45,371.188 L2652.85,371.188 C2653.33,371.188 2653.72,371.113 2654,370.963 C2654.29,370.813 2654.59,370.498 2654.92,370.018 L2655.33,370.333 L2653.62,374.338 C2653.5,374.608 2653.15,374.743 2652.58,374.743 L2643.76,374.743 L2641.87,378.568 C2646.25,379.348 2649.51,380.615 2651.64,382.37 C2653.77,384.125 2654.83,386.698 2654.83,390.088 C2654.83,391.858 2654.56,393.433 2654,394.813 C2653.45,396.193 2652.74,397.303 2651.89,398.143 C2651.03,398.983 2650.04,399.673 2648.92,400.213 C2647.79,400.753 2646.71,401.12 2645.68,401.315 C2644.64,401.51 2643.6,401.608 2642.55,401.608 C2640.87,401.608 2639.53,401.36 2638.54,400.865 C2637.55,400.37 2637.06,399.688 2637.06,398.818 C2637.06,397.708 2637.7,397.153 2638.99,397.153 C2639.83,397.153 2640.92,397.618 2642.26,398.548 C2643.59,399.478 2644.65,399.943 2645.43,399.943 C2647.2,399.943 2648.68,399.2 2649.88,397.715 C2651.08,396.23 2651.68,394.408 2651.68,392.248"/>
<path class="Note" fill="#ffffff" fill-rule="evenodd" d="M2441.19,553.598 L2468.47,553.598 L2468.47,590.798 L2441.19,590.798 L2441.19,553.598 "/>
<path class="Note" d="M2459.74,578.248 C2459.74,576.658 2459.39,575.248 2458.68,574.018 C2457.98,572.788 2457.12,571.835 2456.12,571.16 C2455.11,570.485 2453.99,569.93 2452.74,569.495 C2451.5,569.06 2450.42,568.775 2449.5,568.64 C2448.59,568.505 2447.78,568.438 2447.09,568.438 C2446.73,568.438 2446.55,568.318 2446.55,568.078 C2446.55,567.988 2446.57,567.913 2446.6,567.853 L2451.5,557.188 L2460.91,557.188 C2461.39,557.188 2461.77,557.113 2462.06,556.963 C2462.34,556.813 2462.65,556.498 2462.98,556.018 L2463.38,556.333 L2461.67,560.338 C2461.55,560.608 2461.21,560.743 2460.64,560.743 L2451.82,560.743 L2449.93,564.568 C2454.31,565.348 2457.56,566.615 2459.69,568.37 C2461.82,570.125 2462.89,572.698 2462.89,576.088 C2462.89,577.858 2462.61,579.433 2462.06,580.813 C2461.5,582.193 2460.8,583.303 2459.94,584.143 C2459.09,584.983 2458.1,585.673 2456.97,586.213 C2455.85,586.753 2454.77,587.12 2453.73,587.315 C2452.7,587.51 2451.65,587.608 2450.6,587.608 C2448.92,587.608 2447.59,587.36 2446.6,586.865 C2445.61,586.37 2445.11,585.688 2445.11,584.818 C2445.11,583.708 2445.76,583.153 2447.05,583.153 C2447.89,583.153 2448.98,583.618 2450.31,584.548 C2451.65,585.478 2452.7,585.943 2453.48,585.943 C2455.25,585.943 2456.74,585.2 2457.94,583.715 C2459.14,582.23 2459.74,580.408 2459.74,578.248"/>
<path class="Note" fill="#ffffff" fill-rule="evenodd" d="M2441.19,367.598 L2468.47,367.598 L2468.47,404.798 L2441.19,404.798 L2441.19,367.598 "/>
<path class="Note" d="M2455.28,401.608 C2452.25,401.608 2449.82,400.4 2447.97,397.985 C2446.13,395.57 2445.2,392.383 2445.2,388.423 C2445.2,387.193 2445.32,385.925 2445.56,384.62 C2445.8,383.315 2446.33,381.83 2447.14,380.165 C2447.95,378.5 2449,377.008 2450.29,375.688 C2451.58,374.368 2453.39,373.19 2455.71,372.155 C2458.04,371.12 2460.71,370.468 2463.74,370.198 L2463.83,370.918 C2460.29,371.488 2457.34,372.92 2454.97,375.215 C2452.6,377.51 2451.11,380.353 2450.51,383.743 C2451.92,382.903 2452.99,382.355 2453.71,382.1 C2454.43,381.845 2455.28,381.718 2456.27,381.718 C2458.85,381.718 2460.91,382.565 2462.44,384.26 C2463.97,385.955 2464.73,388.243 2464.73,391.123 C2464.73,394.213 2463.86,396.733 2462.1,398.683 C2460.35,400.633 2458.07,401.608 2455.28,401.608 M2454.56,383.788 C2452.52,383.788 2451.15,384.238 2450.45,385.138 C2449.74,386.038 2449.39,387.373 2449.39,389.143 C2449.39,392.623 2449.96,395.36 2451.1,397.355 C2452.24,399.35 2453.8,400.348 2455.78,400.348 C2457.37,400.348 2458.58,399.68 2459.42,398.345 C2460.26,397.01 2460.68,395.113 2460.68,392.653 C2460.68,389.833 2460.15,387.65 2459.09,386.105 C2458.02,384.56 2456.51,383.788 2454.56,383.788"/>
<path class="Note" fill="#ffffff" fill-rule="evenodd" d="M1261.5,516.398 L1288.78,516.398 L1288.78,553.598 L1261.5,553.598 L1261.5,516.398 "/>
<path class="Note" d="M1280.05,541.048 C1280.05,539.458 1279.69,538.048 1278.99,536.818 C1278.28,535.588 1277.43,534.635 1276.42,533.96 C1275.42,533.285 1274.29,532.73 1273.05,532.295 C1271.8,531.86 1270.72,531.575 1269.81,531.44 C1268.89,531.305 1268.09,531.238 1267.4,531.238 C1267.04,531.238 1266.86,531.118 1266.86,530.878 C1266.86,530.788 1266.88,530.713 1266.91,530.653 L1271.81,519.988 L1281.22,519.988 C1281.7,519.988 1282.08,519.913 1282.36,519.763 C1282.65,519.613 1282.96,519.298 1283.29,518.818 L1283.69,519.133 L1281.98,523.138 C1281.86,523.408 1281.52,523.543 1280.95,523.543 L1272.13,523.543 L1270.24,527.368 C1274.62,528.148 1277.87,529.415 1280,531.17 C1282.13,532.925 1283.2,535.498 1283.2,538.888 C1283.2,540.658 1282.92,542.233 1282.36,543.613 C1281.81,544.993 1281.1,546.103 1280.25,546.943 C1279.39,547.783 1278.4,548.473 1277.28,549.013 C1276.15,549.553 1275.07,549.92 1274.04,550.115 C1273,550.31 1271.96,550.408 1270.91,550.408 C1269.23,550.408 1267.9,550.16 1266.91,549.665 C1265.92,549.17 1265.42,548.488 1265.42,547.618 C1265.42,546.508 1266.07,545.953 1267.36,545.953 C1268.2,545.953 1269.28,546.418 1270.62,547.348 C1271.95,548.278 1273.01,548.743 1273.79,548.743 C1275.56,548.743 1277.05,548 1278.25,546.515 C1279.45,545.03 1280.05,543.208 1280.05,541.048"/>
<path class="Clef" transform="matrix(0.992,0,0,0.992,355.198,479.198)" d="M3.6,-74.6 L3.6,-66.5 L17.3,-66.5 L17.3,-29.1 L26.9,-29.1 L26.9,-66.5 L40.5,-66.5 L40.5,-74.6 L3.6,-74.6 M0,23.1 L10.1,23.1 L13.3,13.6 L30.3,13.6 L33.4,23.1 L43.9,23.1 L27.5,-23.2 L16.5,-23.2 L0,23.1 M21.9,-12.6 L27.8,5.6 L15.9,5.6 L21.9,-12.6 M27.3,27.9 L4.9,27.9 L4.9,74.3 L26,74.3 C32.3,74.3 37.3,73.1 40.8,67.7 C42.2,65.5 42.9,63 42.9,60.3 C42.9,55.1 40.7,51.3 35.7,49.4 C39.8,47.4 41.4,44.7 41.4,40 C41.4,31.6 35.2,28 27.3,27.9 M24.2,36 C28,36 32.2,36.1 32.2,41 C32.2,45.2 29.1,46.2 25.4,46.2 L14.1,46.2 L14.1,36 L24.2,36 M25.5,53.9 C29.4,53.9 33.1,54.9 33.1,59.6 C33.1,64.8 30,66.2 25.4,66.2 L14.1,66.2 L14.1,53.9 L25.5,53.9 "/>
</svg>
